<svg data-v-423bf9ae="" xmlns="http://www.w3.org/2000/svg" viewBox="0 0 821 700" class="iconLeftSlogan"><!----><!----><!----><g data-v-423bf9ae="" id="e5447bff-19cb-41d0-9d4c-92bdb4d22624" fill="white" transform="matrix(5.602241375257251,0,0,5.602241375257251,690.5136104534225,-42.96919177564021)"><path d="M7.28 7.67L7.52 7.92L7.52 7.92Q7.03 8.62 6.23 9.09L6.23 9.09L6.23 9.09Q5.43 9.55 4.62 9.55L4.62 9.55L4.62 9.55Q4.35 9.88 4.24 10.19L4.24 10.19L4.24 10.19Q4.12 10.50 4.12 10.91L4.12 10.91L4.12 15.43L4.12 15.43Q4.12 16.44 3.68 17.12L3.68 17.12L3.68 17.12Q3.23 17.81 2.31 18.38L2.31 18.38L2.02 18.05L2.02 18.05Q2.38 17.58 2.38 16.69L2.38 16.69L2.38 11.72L2.38 11.72Q2.38 11.13 2.75 10.58L2.75 10.58L2.75 10.58Q3.12 10.02 3.67 9.55L3.67 9.55L1.81 9.53L1.81 9.53Q1.33 9.53 0.94 9.74L0.94 9.74L0.94 9.74Q0.55 9.95 0.20 10.39L0.20 10.39L-0.11 10.09L-0.11 10.09Q0.55 9.23 1.24 8.72L1.24 8.72L1.24 8.72Q1.93 8.22 2.81 8.22L2.81 8.22L4.89 8.22L4.89 8.22Q5.56 8.22 6.24 8.10L6.24 8.10L6.24 8.10Q6.93 7.98 7.28 7.67L7.28 7.67ZM12.71 7.87L12.71 7.87Q13.65 7.87 14.22 8.37L14.22 8.37L14.22 8.37Q14.80 8.88 14.80 9.70L14.80 9.70L14.80 9.70Q14.80 10.37 14.42 11.05L14.42 11.05L14.42 11.05Q14.04 11.73 13.41 12.25L13.41 12.25L13.41 12.25Q12.77 12.77 12.00 12.98L12.00 12.98L11.79 12.61L11.79 12.61Q12.39 12.33 12.76 11.75L12.76 11.75L12.76 11.75Q13.13 11.17 13.13 10.50L13.13 10.50L13.13 10.50Q13.13 9.70 12.70 9.22L12.70 9.22L12.70 9.22Q12.26 8.74 11.56 8.74L11.56 8.74L11.56 8.74Q10.82 8.74 10.17 9.33L10.17 9.33L10.17 9.33Q9.52 9.93 9.13 10.93L9.13 10.93L9.13 10.93Q8.75 11.93 8.75 13.08L8.75 13.08L8.75 13.08Q8.75 14.25 9.11 15.16L9.11 15.16L9.11 15.16Q9.48 16.06 10.13 16.56L10.13 16.56L10.13 16.56Q10.78 17.07 11.62 17.07L11.62 17.07L11.62 17.07Q12.22 17.07 12.83 16.77L12.83 16.77L12.83 16.77Q13.44 16.46 14.01 15.89L14.01 15.89L14.39 16.24L14.39 16.24Q13.73 17.09 12.76 17.66L12.76 17.66L12.76 17.66Q11.79 18.23 10.72 18.23L10.72 18.23L10.72 18.23Q9.58 18.23 8.71 17.70L8.71 17.70L8.71 17.70Q7.85 17.16 7.39 16.22L7.39 16.22L7.39 16.22Q6.93 15.27 6.93 14.06L6.93 14.06L6.93 14.06Q6.93 12.35 7.71 10.93L7.71 10.93L7.71 10.93Q8.48 9.51 9.81 8.69L9.81 8.69L9.81 8.69Q11.13 7.87 12.71 7.87L12.71 7.87ZM23.16 7.83L21.41 8.39L21.41 13.36L18.03 13.36L18.03 7.83L16.28 8.39L16.28 13.36L15.64 13.36L15.16 14.29L16.28 14.29L16.28 18.34L18.03 17.77L18.03 14.29L21.41 14.29L21.41 18.34L23.16 17.77L23.16 7.83Z"></path></g><!----><g data-v-423bf9ae="" id="11dc0750-b6e3-41a3-9b39-663bd1afa970" transform="matrix(2.7886942545572917,0,0,2.7886942545572917,-116.99334876954867,-73.96803179074777)" stroke="none" fill="white"><switch><g><path d="M209.779 192.988c1.707-8.415 5.918-8.893 0-14.991-.001-3.646.944-6.901-.559-10.343-2.452-5.616-7.837-10.646-7.837-10.646s1.199 7.195-6.596 15.591c-6.764 7.283-27.64 16.388-33.058 18.675-3.985-1.758-24.674-11.102-31.707-18.675-7.796-8.396-6.596-15.591-6.596-15.591s-5.384 5.029-7.837 10.646c-1.502 3.441-.558 6.697-.559 10.343-5.918 6.099-1.707 6.576 0 14.991.354 1.744-2.175 3.487-.759 7.3.868 2.335 4.561 5.791 7.355 9.491 2.26 2.992.6 48.572 14.392 68.045 0 0-3.598-51.255 4.198-60.25 2.847-3.285 16.646-3.588 20.922-3.603h.555l.239.001h.006c.3.001.465.004.465.004v-.002c5.273.039 19.449.439 22.188 3.6 7.796 8.995 4.198 60.25 4.198 60.25 13.792-19.473 12.132-65.053 14.392-68.045 2.795-3.7 6.488-7.156 7.355-9.491 1.418-3.812-1.111-5.556-.757-7.3zm-4.162-.328s0 8.17-21.588 8.166c-4.993-.001-9.144-.563-12.485-1.313 6.161 3.781 13.922 7.984 18.707 8.496 0 0-.726-1.096.747-3.238 1.498-2.181 3.906-2.128 5.273-1.087 1.418 1.078 1.753 3.217.955 4.824-1.063 2.138-2.99 4.234-10.713 4.234-14.494 0-20.238-6.291-24.395-8.743-4.156 2.452-9.9 8.743-24.396 8.743-7.722 0-9.65-2.097-10.712-4.234-.798-1.607-.463-3.746.954-4.824 1.367-1.041 3.776-1.094 5.274 1.087 1.473 2.143.747 3.238.747 3.238 4.786-.512 12.547-4.715 18.708-8.496-3.341.749-7.493 1.312-12.486 1.313-21.588.004-21.588-8.166-21.588-8.166v-2.105c0-1.979 1.789-3.583 3.995-3.583 1.939 0 3.553 1.239 3.917 2.883 0 0 .236 1.922-.241 2.239 1.87 2.333 12.05 6.232 27.518.899-13.867-.342-29.816-7.513-32.959-15.709-1.125-2.932-1.463-6.025 2.218-7.081 2.102-.603 6.495 2.891 3.204 7.29 2.89 3.167 12.74 7.987 27.654 11.364 6.158 1.395 8.093 2.91 8.093 2.91l.102.463.103-.463s1.934-1.516 8.092-2.91c14.916-3.377 24.766-8.197 27.655-11.364-3.291-4.399 1.103-7.893 3.204-7.29 3.68 1.056 3.342 4.149 2.217 7.081-3.143 8.196-19.092 15.367-32.959 15.709 15.467 5.333 25.648 1.434 27.518-.899-.478-.317-.241-2.239-.241-2.239.364-1.644 1.978-2.883 3.917-2.883 2.205 0 3.994 1.604 3.994 3.583-.003.695-.003 2.105-.003 2.105zM184.65 143.474c-.841-.102-1.317-.141-1.317-.141a11.6 11.6 0 0 0 1.317.141z"></path><path d="M242.781 131.363c6.89-5.359 25.687 3.429 37.219 14.637-23.063-44.149-63.05-17.486-67.169-14.667 0 0 11.377-.115 13.169 0 1.88.121 8.734 1.682 3.667 7.333-8.612 9.604-19.744 6.502-19.744 6.502l.005.008c-10.216-2.253-20.678-1.419-25.277-1.703 6.021.73 30.979 4.758 37.35 21.859 6.333 17-12.704 46.437-15.333 52.083 21.307-14.898 31.444-38.873 26.114-54.469-1.066 1.045-2.345 1.656-3.721 1.656-3.721 0-6.737-4.448-6.737-9.934 0-1.503.233-2.923.638-4.2-.082-.055-.162-.116-.245-.17a7.909 7.909 0 0 1 1.308-2.211c1.234-2.053 3.03-3.354 5.037-3.354l.015.001c3.728-1.383 7.463-.656 12.753-.271l1.505-6.798c-.002.002-4.758-3.032-.554-6.302z"></path><path d="M250.866 131.938h-4.757s.308 15.604-4.44 18.062c-3.092 1.601-10.272-3.744-10.272-3.744L226.288 150s19.028 8.102 11.417 47.587c9.038-18.077 10.87-26.178 11.821-34.64s1.34-31.009 1.34-31.009zM196.317 136.695s15.063-1.11 25.213 3.647l-6.025 2.379s-8.564-4.599-19.188-6.026zM253.314 140.97l-.502 7.462s10.264 20.612 5.189 35.359c6.66-11.734 8.158-27.75 6.978-30.446-1.381-3.153-5.55-10.941-8.404-15.698.449.727-3.261 3.323-3.261 3.323zM140.14 143.474c.841-.102 1.317-.141 1.317-.141-.358.065-.805.109-1.317.141zM82.009 131.363c-6.89-5.359-25.687 3.429-37.219 14.637 23.063-44.149 63.05-17.486 67.169-14.667 0 0-11.377-.115-13.169 0-1.88.121-8.734 1.682-3.667 7.333 8.612 9.604 19.744 6.502 19.744 6.502l-.005.008c10.216-2.253 20.678-1.419 25.277-1.703-6.021.73-30.979 4.758-37.35 21.858-6.333 17 12.704 46.438 15.333 52.084-21.307-14.898-31.444-38.873-26.114-54.469 1.066 1.045 2.345 1.656 3.721 1.656 3.721 0 6.737-4.449 6.737-9.934a13.91 13.91 0 0 0-.638-4.2c.082-.055.162-.116.245-.17a7.909 7.909 0 0 0-1.308-2.211c-1.234-2.053-3.03-3.354-5.037-3.354l-.015.001c-3.728-1.383-7.463-.656-12.753-.271l-1.505-6.798c.003.001 4.758-3.032.554-6.302z"></path><path d="M73.924 131.938h4.757s-.308 15.604 4.44 18.062c3.092 1.6 10.272-3.744 10.272-3.744L98.502 150s-19.028 8.102-11.417 47.586c-9.038-18.076-10.87-26.178-11.821-34.639-.951-8.463-1.34-31.009-1.34-31.009zM128.473 136.694s-15.063-1.11-25.213 3.647l6.025 2.379s8.564-4.598 19.188-6.026zM71.476 140.97l.502 7.462s-10.264 20.611-5.189 35.359c-6.66-11.734-8.158-27.75-6.978-30.447 1.381-3.153 5.55-10.94 8.404-15.698-.449.727 3.261 3.324 3.261 3.324zM162.303 177.986c-6.929 0-13.652-5.016-16.968-10.986 2.403 12.668 8.775 13.712 12 15.834 2.69 1.771 4.323 3.805 4.866 4.543 0 0 .036.235.103.142.066.094.103-.142.103-.142.543-.738 2.176-2.771 4.866-4.543 3.225-2.122 9.597-3.166 11.999-15.834-3.317 5.971-10.041 10.986-16.969 10.986z"></path><path d="M162.333 188.041h-.258l-.047-.061c-.111-.058-.229-.171-.293-.391-.606-.811-2.165-2.685-4.677-4.338-.511-.337-1.128-.657-1.781-.996-3.338-1.732-8.383-4.352-10.434-15.163l-.578-3.048 1.506 2.712c3.509 6.317 10.307 10.729 16.531 10.729 6.226 0 13.022-4.412 16.53-10.729l1.507-2.713-.578 3.049c-2.05 10.812-7.096 13.431-10.434 15.163-.653.339-1.271.659-1.782.996-2.511 1.653-4.069 3.527-4.676 4.338-.061.208-.169.32-.275.381l-.033.048-.111.009a.547.547 0 0 1-.117.014zm-15.875-18.379c2.197 8.029 6.246 10.131 9.281 11.706.677.352 1.315.683 1.87 1.048a20.405 20.405 0 0 1 4.682 4.256l.013-.019.013.019a20.416 20.416 0 0 1 4.681-4.256c.556-.365 1.194-.696 1.871-1.048 3.035-1.575 7.084-3.676 9.28-11.706-3.924 5.301-10.107 8.824-15.845 8.824-5.738 0-11.922-3.524-15.846-8.824zM217.933 115.376c-1.577-.325 2.84-11.222 11.063-17.043 8.298-5.874 19.435-18.239 19.435-18.239s-5.083-2.093-5.382-3.887 0-3.289 0-3.289h-2.99s-.193 10.955-6.771 18.131-18.267 7.649-31.201 11.527c-13.119 3.933-18.239 16.985-20.93 29.361 3.494-11.151 16.878-8.049 21.063-10.113s7.475-11.726 10.611-14.223c1.271-1.011 4.85-.944 2.71 3.887-2.496 5.636-11.26 16.225-23.322 18.538 15.847 2.99 33.488-14.053 33.488-14.053s-.787.726-7.774-.597zm-23.995 5.761c-2.694 0-5.21-1.354-6.634-3.551.952-1.658 2.672-3.388 5.025-4.8v2.509s1.006.294 1.607-1.326a16.758 16.758 0 0 1 1.223-2.584 22.592 22.592 0 0 1 5.641-1.443c.879 1.111.957 1.86.957 3.673 0 4.148-3.508 7.522-7.819 7.522z"></path><path d="M246.393 98.117c3.122-5.024 9.57-9.571 20.172-12.369-6.037.59-26.839 3.333-40.276 25.473 11.563-2.061 17.748-1.03 19.81 7.805 1.436-.056 4.123 0 4.123 0s-2.66-10.382-4.123-13.841c-1.167-2.757-.64-5.566.294-7.068z"></path><path d="M239.03 112.401c-6.479 3.092-14.511 7.157-15.461 10.307 11.632-5.006 19.583-5.743 19.583-5.743s.299-2.486-4.122-4.564zM266.564 108.572c.147 2.503-1.194 6.654-6.037 3.829-7.067-4.123 7.951-16.197 17.229-16.639-13.253-2.209-18.995-1.77-25.621 2.356 3.976 1.62 7.951 3.976 2.798 6.92l-5.153 2.945 2.061 7.951c10.454.589 26.505 3.387 30.333 8.393-1.768-5.006-7.658-11.779-15.61-15.755z"></path><g><path d="M98.423 115.974s17.642 17.043 33.488 14.053c-12.063-2.313-20.826-12.902-23.322-18.538-2.14-4.831 1.439-4.898 2.71-3.887 3.137 2.497 6.426 12.158 10.611 14.223s17.569-1.038 21.063 10.113c-2.69-12.376-7.811-25.428-20.93-29.361-12.935-3.878-24.623-4.351-31.201-11.527s-6.771-18.131-6.771-18.131h-2.99s.299 1.495 0 3.289-5.382 3.887-5.382 3.887S86.836 92.46 95.134 98.334c8.224 5.821 12.641 16.718 11.063 17.043-6.987 1.322-7.774.597-7.774.597zm23.95-2.359c0-1.813.078-2.562.957-3.673 2.075.258 3.963.769 5.641 1.443.233.397.768 1.359 1.223 2.584.602 1.62 1.607 1.326 1.607 1.326v-2.509c2.354 1.413 4.073 3.143 5.025 4.8-1.424 2.197-3.939 3.551-6.634 3.551-4.311 0-7.819-3.374-7.819-7.522z"></path><path d="M77.737 98.117c-3.122-5.024-9.57-9.571-20.172-12.369 6.037.59 26.839 3.333 40.276 25.473-11.563-2.061-17.748-1.03-19.81 7.805-1.436-.056-4.123 0-4.123 0s2.66-10.382 4.123-13.841c1.167-2.757.64-5.566-.294-7.068z"></path><path d="M85.1 112.401c6.479 3.092 14.511 7.157 15.461 10.307-11.632-5.006-19.583-5.743-19.583-5.743s-.299-2.486 4.122-4.564zM57.565 108.572c-.147 2.503 1.194 6.654 6.037 3.829 7.067-4.123-7.951-16.197-17.229-16.639 13.253-2.209 18.995-1.77 25.621 2.356-3.976 1.62-7.951 3.976-2.798 6.92l5.153 2.945-2.061 7.951c-10.454.589-26.505 3.387-30.333 8.393 1.769-5.006 7.659-11.779 15.61-15.755z"></path></g><path d="M187.703 64.833c.748 8.455-8.274 4.699-9.137 2.543-.486-1.217-.13-2.735.286-4.023 1.649-5.115 11.508-5.039 26.331 1.018 3.238-.623-13.667-12-32.001-15 4.334-1.667 12.334-1 16.334-2.333-14.599-.894-25.174.489-27.258.792-2.084-.304-12.66-1.686-27.259-.792 4 1.333 12 .667 16.334 2.333-18.333 3-35.239 14.377-32 15 14.824-6.057 24.682-6.133 26.332-1.018.416 1.288.772 2.806.286 4.023-.862 2.156-9.885 5.912-9.137-2.543-2.221-.718-14.258-.205-23.147 8.455 10.945-5.135 23.574-2.198 31.894 3.243 7.383 4.828 13.347 15.325 14.319 18.284-.988 1.467-2.732 4.02-1.641 5.35 1.862 2.269 1.261 4.236 1.261 4.236s2.366-2.698 2.759-3.285c.394.586 2.758 3.285 2.758 3.285s-.602-1.967 1.262-4.236c1.092-1.33-.652-3.883-1.641-5.35.971-2.959 6.936-13.456 14.318-18.284 8.32-5.441 20.949-8.378 31.895-3.243-8.89-8.659-20.927-9.172-23.148-8.455zm-16.541-1.309s0 11.601-8.903 23.202c-5.009-4.428-7.443-14.886-8.382-20.113a14.686 14.686 0 0 1-.447-2.808l-.036-.281h.025c-.01-.22-.025-.438-.025-.662 0-6.408 3.978-11.604 8.884-11.604 4.907 0 8.885 5.195 8.885 11.604 0 .223-.016.441-.025.662h.024z"></path><g><path d="M111.669 77.75c5.75 3.75 8.114 5.406 10.458 7.999 2.667-1.299 4.849-.572 5.008 1.531.054.717-.124 1.65-.725 2.828-1.455 1.131-12.361.986-15.841.162-10.911-2.586-17.685-8.519-17.685-8.519s5.723 8.034 12.593 10.875c8.923 3.691 29.139 6.125 37.916 14.875-.224-5.251-8.474-29.251-31.724-29.751z"></path><path d="M200.099 74.5c-10.25.179-17.458 4.5-21.75 9.25l-4.25-.75-4.5 6v7.563s-3.493 6.607-6 12.825a25.065 25.065 0 0 0-1.34 4.558 25.111 25.111 0 0 0-1.34-4.558c-2.507-6.218-6-12.825-6-12.825V89l-4.5-6-4.25.75c-4.292-4.75-11.5-9.071-21.75-9.25 11.25 4.321 21.25 15.5 22.25 27.888 8.478-.699 13.551 9.175 15.308 13.349-.136 1.126-.137 1.818-.137 1.818s.141-.426.419-1.128c.278.703.419 1.128.419 1.128s-.001-.692-.137-1.818c1.757-4.174 6.83-14.047 15.308-13.349 1-12.388 11-23.567 22.25-27.888z"></path><path d="M213.949 90.269c-3.48.825-14.387.97-15.842-.162-.601-1.177-.779-2.11-.725-2.828.159-2.103 2.342-2.83 5.008-1.531 2.344-2.592 4.708-4.249 10.458-7.999-23.25.5-31.5 24.5-31.724 29.75 8.776-8.75 28.992-11.184 37.916-14.875 6.869-2.841 12.592-10.875 12.592-10.875s-6.773 5.933-17.683 8.52z"></path></g><path d="M157.25 112.401l-2.5-3.013s-5 28.362 2.5 40.612c-1.75-9.5-3.633-20.584-2.066-27.292s2.066-10.307 2.066-10.307zM168.115 112.401l2.5-3.013s5 28.362-2.5 40.612c1.75-9.5 3.633-20.584 2.066-27.292s-2.066-10.307-2.066-10.307zM163.335 60.771a16.551 16.551 0 0 1-.956-2.632s-.12-.343-.241-1.004c-.06.458-.187.75-.187.75a16.402 16.402 0 0 1-.951 2.614c-1.385 2.997-5.816 10.25-5.816 10.25s1.566.75 4.316 7c1.644-3.653 2.356-5.565 2.622-6.334.162.5.82 2.4 2.713 6.605 2.75-6.25 4.316-7 4.316-7s-4.431-7.252-5.816-10.249zM216.457 60.356s-15.214-8.127-27.638-9.95v-1.327s14.336-.087 20.104 0c3.904.059 5.322-3.096 3.554-4.865s-4.067-1.955-7.646-2.291c4.644-3.759 11.479-8.8 23.566-10.534 11.945-1.714 11.387-.427 16.804-1.99-12.039 5.503-21.636 8.441-25.271 15.478-1.529 2.961-1.09 8.723-1.09 8.723l-2.383 6.756zM108.652 60.356s15.214-8.127 27.638-9.95v-1.327s-14.336-.087-20.104 0c-3.904.059-5.322-3.096-3.554-4.865s4.067-1.955 7.646-2.291c-4.644-3.759-11.479-8.8-23.566-10.534-11.945-1.714-11.387-.427-16.804-1.99 12.039 5.503 21.636 8.441 25.271 15.478 1.529 2.961 1.09 8.723 1.09 8.723l2.383 6.756z"></path><g><path d="M248.431 42c-.779-10.167 2.07-11.667 3.736-13.667s-.5-.833-.5-.833-7.5 4.333-10.667 8.333c-3.207 4.05-5.667 9.045-5.667 9.045 11.093-4.712 12 9.955 2.142 9.788-6.47-.11-6.964-7.9-6.539-13.242C227.9 44.11 215.999 55.873 217.01 74.5l.323-.167s5.923-15.71 14.3-16c4.833-.167 7.034 3.5 7.034 6.667 2.056 1.1 2.833.5 2.833.5s2.5-6.667 6.931-6.833c4.566-.172 8.235.522 9.569 1.689-1.334-1.167-8.79-8.189-9.569-18.356z"></path><path d="M223.167 67.579S226.167 63 227 63c2 1.833 6.167 4.579 13.167 4.579 3.665 0 5.034.46 8.264 0 1.594-.803 3.477-3.34 4.236-5.579 3.666 1.833 10.166 11 5.333 16.833s-5.941 5.997-8.221 6.915c4.054-3.749 5.388-9.082-1.349-12.831-5.206-2.897-14.712-3.42-16.079-1.586-1.11 1.489.481 4.978 2.981 4.24-4.166 2.762-11.873 7.712-19.166 6.262 6.333-2.5 9.909-5.998 10.121-8.916s-3.12-5.338-3.12-5.338z"></path></g><g><path d="M75.835 41.68c.779-10.167-2.07-11.667-3.736-13.667s.5-.833.5-.833 7.5 4.333 10.667 8.333c3.207 4.05 5.667 9.045 5.667 9.045-11.093-4.712-12 9.955-2.142 9.788 6.47-.11 6.964-7.9 6.539-13.242 3.036 2.686 14.937 14.449 13.926 33.076l-.323-.167s-5.923-15.71-14.3-16c-4.833-.167-7.034 3.5-7.034 6.667-2.056 1.1-2.833.5-2.833.5s-2.5-6.667-6.931-6.833c-4.566-.172-8.235.522-9.569 1.689 1.334-1.167 8.79-8.189 9.569-18.356z"></path><path d="M101.099 67.259s-3-4.579-3.833-4.579c-2 1.833-6.167 4.579-13.167 4.579-3.665 0-5.034.46-8.264 0-1.594-.803-3.477-3.34-4.236-5.579-3.666 1.833-10.166 11-5.333 16.833s5.941 5.997 8.221 6.915c-4.054-3.749-5.388-9.082 1.349-12.831 5.206-2.897 14.712-3.42 16.079-1.586 1.11 1.489-.481 4.978-2.981 4.24 4.166 2.762 11.873 7.712 19.166 6.262-6.333-2.5-9.909-5.998-10.121-8.916s3.12-5.338 3.12-5.338z"></path></g></g></switch></g><!----><g data-v-423bf9ae="" id="56bb5c70-9667-4a14-81c0-10db6d0d0cd5" fill="white" transform="matrix(0.5448757090514811,0,0,0.5448757090514811,690.4291935673544,59.631609730586376)"><path d="M4.55 2.35L4.55 2.35Q3.60 2.17 2.59 2.15L2.59 2.15L2.59 2.15Q2.50 2.03 2.02 2.11L2.02 2.11L2.02 2.11Q1.92 2.13 1.80 2.16L1.80 2.16L1.80 2.16Q0.74 2.22-0.30 2.46L-0.30 2.46L-0.30 2.46Q-1.04 2.63-0.97 2.88L-0.97 2.88L-0.97 2.88Q-0.92 3.08-0.20 2.91L-0.20 2.91L-0.20 2.91Q-0.19 2.91-0.18 2.90L-0.18 2.90L-0.18 2.90Q-0.16 2.90-0.15 2.89L-0.15 2.89L-0.15 2.89Q-0.08 2.88 0.08 2.85L0.08 2.85L0.08 2.85Q0.25 2.82 0.47 2.80L0.47 2.80L0.47 2.80Q0.76 2.76 1.09 2.75L1.09 2.75L1.09 2.75Q-0.33 7.40-0.72 10.96L-0.72 10.96L-0.72 10.96Q-0.73 11.02-0.51 11.03L-0.51 11.03L-0.51 11.03Q-0.29 11.04-0.01 10.99L-0.01 10.99L-0.01 10.99Q0.71 10.86 0.74 10.56L0.74 10.56L0.74 10.56Q1.11 7.19 2.43 2.78L2.43 2.78L2.43 2.78Q2.91 2.82 3.34 2.91L3.34 2.91L3.34 2.91Q3.78 2.99 4.37 2.72L4.37 2.72L4.37 2.72Q4.53 2.65 4.62 2.54L4.62 2.54L4.62 2.54Q4.76 2.39 4.55 2.35L4.55 2.35ZM14.97 1.42L14.97 1.42Q14.26 1.19 13.08 1.57L13.08 1.57L13.08 1.57Q11.57 2.06 11.01 3.77L11.01 3.77L11.01 3.77Q10.66 4.83 10.83 6.11L10.83 6.11L10.83 6.11Q10.92 6.76 11.19 7.16L11.19 7.16L11.19 7.16Q10.77 7.38 10.48 7.70L10.48 7.70L10.48 7.70Q9.48 8.80 9.59 10.01L9.59 10.01L9.59 10.01Q9.66 10.70 10.14 11.11L10.14 11.11L10.14 11.11Q10.53 11.44 11.36 11.42L11.36 11.42L11.36 11.42Q12.20 11.39 12.90 10.95L12.90 10.95L12.90 10.95Q13.65 10.49 13.95 9.76L13.95 9.76L13.95 9.76Q14.01 9.61 13.73 9.60L13.73 9.60L13.73 9.60Q13.56 9.59 13.37 9.63L13.37 9.63L13.37 9.63Q12.62 9.76 12.52 10.02L12.52 10.02L12.52 10.02Q12.32 10.51 11.97 10.80L11.97 10.80L11.97 10.80Q11.96 10.81 11.94 10.82L11.94 10.82L11.94 10.82Q11.89 10.81 11.89 10.81L11.89 10.81L11.89 10.81Q11.82 10.79 11.74 10.75L11.74 10.75L11.74 10.75Q11.57 10.68 11.42 10.52L11.42 10.52L11.42 10.52Q11.13 10.23 11.05 9.63L11.05 9.63L11.05 9.63Q10.96 8.83 11.59 7.86L11.59 7.86L11.59 7.86Q11.67 7.74 11.77 7.62L11.77 7.62L11.77 7.62Q11.98 7.70 12.26 7.72L12.26 7.72L12.26 7.72Q12.66 7.74 13.15 7.51L13.15 7.51L13.15 7.51Q13.57 7.32 13.42 7.18L13.42 7.18L13.42 7.18Q13.13 6.90 12.71 6.84L12.71 6.84L12.71 6.84Q12.67 6.79 12.63 6.75L12.63 6.75L12.63 6.75Q12.43 6.45 12.32 5.89L12.32 5.89L12.32 5.89Q12.13 4.89 12.31 4.00L12.31 4.00L12.31 4.00Q12.58 2.70 13.34 2.04L13.34 2.04L13.34 2.04Q13.40 2.00 13.49 1.93L13.49 1.93L13.49 1.93Q13.50 1.93 13.50 1.93L13.50 1.93L13.50 1.93Q13.63 1.94 13.61 1.93L13.61 1.93L13.61 1.93Q14.19 2.02 14.08 2.62L14.08 2.62L14.08 2.62Q14.03 2.86 14.66 2.75L14.66 2.75L14.66 2.75Q14.96 2.69 15.22 2.58L15.22 2.58L15.22 2.58Q15.50 2.45 15.52 2.36L15.52 2.36L15.52 2.36Q15.65 1.63 14.97 1.42L14.97 1.42ZM24.14 7.89L24.14 7.89Q24.04 7.90 23.14 7.84L23.14 7.84L23.14 7.84Q23.55 6.63 24.01 5.57L24.01 5.57L24.01 5.57Q24.17 5.18 24.72 3.95L24.72 3.95L24.72 3.95Q24.70 4.61 24.51 7.85L24.51 7.85L24.51 7.85Q24.34 7.87 24.14 7.89L24.14 7.89ZM25.96 1.18L25.96 1.18Q25.77 1.09 25.39 1.16L25.39 1.16L25.39 1.16Q24.75 1.27 24.53 1.55L24.53 1.55L24.53 1.55Q24.34 1.80 23.56 3.58L23.56 3.58L23.56 3.58Q23.42 3.90 23.06 4.70L23.06 4.70L23.06 4.70Q22.74 5.42 22.57 5.83L22.57 5.83L22.57 5.83Q22.15 6.79 21.77 7.86L21.77 7.86L21.77 7.86Q20.85 7.97 20.20 8.37L20.20 8.37L20.20 8.37Q20.02 8.48 20.05 8.58L20.05 8.58L20.05 8.58Q20.08 8.67 20.28 8.68L20.28 8.68L20.28 8.68Q20.80 8.70 21.27 8.43L21.27 8.43L21.27 8.43Q21.42 8.41 21.46 8.41L21.46 8.41L21.46 8.41Q21.53 8.41 21.59 8.41L21.59 8.41L21.59 8.41Q21.27 9.39 20.95 10.53L20.95 10.53L20.95 10.53Q20.88 10.79 21.53 10.67L21.53 10.67L21.53 10.67Q21.83 10.62 22.09 10.49L22.09 10.49L22.09 10.49Q22.36 10.37 22.39 10.27L22.39 10.27L22.39 10.27Q22.65 9.32 22.93 8.48L22.93 8.48L22.93 8.48Q23.22 8.50 23.42 8.47L23.42 8.47L23.42 8.47Q24.12 8.39 24.48 8.46L24.48 8.46L24.48 8.46Q24.37 10.55 24.37 12.02L24.37 12.02L24.37 12.02Q24.37 12.10 24.60 12.11L24.60 12.11L24.60 12.11Q24.81 12.12 25.10 12.06L25.10 12.06L25.10 12.06Q25.83 11.91 25.83 11.62L25.83 11.62L25.83 11.62Q25.83 9.90 26.04 6.45L26.04 6.45L26.04 6.45Q26.24 3.00 26.24 1.27L26.24 1.27L26.24 1.27Q26.24 1.18 25.96 1.18L25.96 1.18ZM40.74 2.21L40.74 2.21Q40.69 2.05 40.14 2.15L40.14 2.15L40.14 2.15Q39.44 2.28 39.28 2.54L39.28 2.54L39.28 2.54Q38.40 4.03 37.47 6.51L37.47 6.51L37.47 6.41L37.47 6.41Q37.47 5.55 37.30 2.12L37.30 2.12L37.30 2.12Q37.30 2.03 37.06 2.02L37.06 2.02L37.06 2.02Q36.92 1.92 36.50 2.00L36.50 2.00L36.50 2.00Q35.79 2.13 35.65 2.39L35.65 2.39L35.65 2.39Q33.52 6.30 32.91 11.14L32.91 11.14L32.91 11.14Q32.89 11.27 33.28 11.23L33.28 11.23L33.28 11.23Q33.52 11.21 33.70 11.16L33.70 11.16L33.70 11.16Q34.34 10.99 34.37 10.75L34.37 10.75L34.37 10.75Q34.77 7.51 35.94 4.58L35.94 4.58L35.94 4.58Q36.00 5.81 36.00 6.71L36.00 6.71L36.00 6.71Q36.01 8.26 35.93 8.86L35.93 8.86L35.93 8.86Q35.75 10.15 35.74 10.99L35.74 10.99L35.74 10.99Q35.74 11.20 36.42 11.03L36.42 11.03L36.42 11.03Q37.10 10.86 37.19 10.66L37.19 10.66L37.19 10.66Q37.67 9.61 38.38 7.67L38.38 7.67L38.38 7.67Q39.17 5.54 39.54 4.66L39.54 4.66L39.54 4.66Q39.58 5.91 39.34 7.85L39.34 7.85L39.34 7.85Q39.01 10.57 38.97 11.04L38.97 11.04L38.97 11.04Q38.96 11.12 39.18 11.12L39.18 11.12L39.18 11.12Q39.40 11.13 39.68 11.08L39.68 11.08L39.68 11.08Q40.41 10.94 40.43 10.65L40.43 10.65L40.43 10.65Q40.49 9.88 40.67 8.54L40.67 8.54L40.67 8.54Q40.86 7.03 40.92 6.43L40.92 6.43L40.92 6.43Q41.16 3.95 40.74 2.21L40.74 2.21ZM63.27 1.54L63.27 1.54Q62.84 0.91 61.65 1.20L61.65 1.20L61.65 1.20Q60.70 1.43 60.05 2.14L60.05 2.14L60.05 2.14Q59.04 3.26 58.61 5.40L58.61 5.40L58.61 5.40Q58.32 6.86 58.22 8.67L58.22 8.67L58.22 8.67Q58.21 9.98 58.34 10.47L58.34 10.47L58.34 10.47Q58.62 11.44 59.71 11.50L59.71 11.50L59.71 11.50Q60.33 11.53 60.92 11.27L60.92 11.27L60.92 11.27Q61.51 10.99 61.88 10.51L61.88 10.51L61.88 10.51Q62.25 10.02 62.59 8.89L62.59 8.89L62.59 8.89Q62.67 8.64 62.01 8.76L62.01 8.76L62.01 8.76Q61.71 8.81 61.46 8.93L61.46 8.93L61.46 8.93Q61.18 9.06 61.15 9.15L61.15 9.15L61.15 9.15Q60.91 9.99 60.63 10.48L60.63 10.48L60.63 10.48Q60.52 10.68 60.39 10.83L60.39 10.83L60.39 10.83Q59.82 10.58 59.70 9.66L59.70 9.66L59.70 9.66Q59.67 9.42 59.68 8.20L59.68 8.20L59.68 8.20Q59.78 6.41 60.09 4.92L60.09 4.92L60.09 4.92Q60.56 2.75 61.59 1.80L61.59 1.80L61.59 1.80Q61.61 1.79 61.63 1.76L61.63 1.76L61.63 1.76Q62.00 2.01 62.09 2.75L62.09 2.75L62.09 2.75Q62.17 3.36 61.95 4.29L61.95 4.29L61.95 4.29Q61.62 5.76 61.61 5.80L61.61 5.80L61.61 5.80Q61.59 5.92 61.97 5.89L61.97 5.89L61.97 5.89Q62.23 5.87 62.40 5.82L62.40 5.82L62.40 5.82Q63.03 5.65 63.08 5.41L63.08 5.41L63.08 5.41Q63.12 5.07 63.28 4.41L63.28 4.41L63.28 4.41Q63.44 3.74 63.50 3.40L63.50 3.40L63.50 3.40Q63.69 2.17 63.27 1.54L63.27 1.54ZM73.34 5.20L73.34 5.20Q73.21 6.64 72.95 7.92L72.95 7.92L72.95 7.92Q72.54 9.88 71.76 10.64L71.76 10.64L71.76 10.64Q71.67 10.55 71.60 10.38L71.60 10.38L71.60 10.38Q71.42 9.97 71.43 9.03L71.43 9.03L71.43 9.03Q71.46 7.34 72.03 5.48L72.03 5.48L72.03 5.48Q72.53 3.85 73.23 3.01L73.23 3.01L73.23 3.01Q73.30 3.25 73.35 3.62L73.35 3.62L73.35 3.62Q73.42 4.21 73.34 5.20L73.34 5.20ZM74.27 1.96L74.27 1.96Q74.06 1.79 73.32 2.05L73.32 2.05L73.32 2.05Q72.82 2.24 72.84 2.39L72.84 2.39L72.84 2.39Q72.59 2.48 72.41 2.63L72.41 2.63L72.41 2.63Q71.43 3.40 70.77 5.22L70.77 5.22L70.77 5.22Q70.22 6.70 70.03 8.50L70.03 8.50L70.03 8.50Q69.95 9.28 69.97 9.92L69.97 9.92L69.97 9.92Q70.01 10.77 70.38 11.13L70.38 11.13L70.38 11.13Q70.56 11.31 70.99 11.33L70.99 11.33L70.99 11.33Q71.53 11.36 72.36 11.02L72.36 11.02L72.36 11.02Q73.04 10.74 73.56 9.94L73.56 9.94L73.56 9.94Q74.03 9.21 74.35 7.85L74.35 7.85L74.35 7.85Q74.56 6.94 74.68 5.84L74.68 5.84L74.68 5.84Q74.85 4.44 74.85 3.78L74.85 3.78L74.85 3.78Q74.83 2.45 74.27 1.96L74.27 1.96ZM86.50 3.48L86.50 3.48Q86.45 1.70 85.61 1.01L85.61 1.01L85.61 1.01Q85.14 0.64 84.25 0.68L84.25 0.68L84.25 0.68Q83.25 0.72 82.00 1.40L82.00 1.40L82.00 1.40Q81.81 1.50 81.85 1.60L81.85 1.60L81.85 1.60Q81.88 1.70 82.08 1.71L82.08 1.71L82.08 1.71Q82.58 1.72 83.11 1.44L83.11 1.44L83.11 1.44Q83.13 1.43 83.15 1.42L83.15 1.42L83.15 1.42Q83.19 1.39 83.27 1.35L83.27 1.35L83.27 1.35Q83.31 1.34 83.38 1.31L83.38 1.31L83.38 1.31Q83.41 1.29 83.52 1.26L83.52 1.26L83.53 1.26L83.53 1.26Q83.54 1.25 83.54 1.26L83.54 1.26L83.54 1.26Q83.54 1.25 83.56 1.25L83.56 1.25L83.56 1.25Q83.60 1.25 83.64 1.26L83.64 1.26L83.64 1.26Q83.64 1.26 83.67 1.26L83.67 1.26L83.67 1.26Q83.71 1.26 83.71 1.26L83.71 1.26L83.71 1.26Q83.79 1.28 83.90 1.31L83.90 1.31L83.90 1.31Q83.90 1.31 83.90 1.31L83.90 1.31L83.90 1.31Q83.90 1.31 83.91 1.31L83.91 1.31L83.91 1.31Q83.94 1.33 83.99 1.35L83.99 1.35L83.99 1.35Q84.04 1.37 84.12 1.43L84.12 1.43L84.12 1.43Q84.25 1.51 84.38 1.65L84.38 1.65L84.38 1.65Q84.58 1.85 84.74 2.23L84.74 2.23L84.74 2.23Q85.33 3.66 84.80 6.11L84.80 6.11L84.80 6.11Q84.45 7.70 83.74 8.97L83.74 8.97L83.74 8.97Q83.38 9.60 82.98 10.03L82.98 10.03L82.98 10.03Q82.80 10.22 82.59 10.39L82.59 10.39L82.59 10.39Q83.68 5.68 84.14 1.78L84.14 1.78L84.14 1.78Q84.15 1.71 83.93 1.70L83.93 1.70L83.93 1.70Q83.71 1.69 83.44 1.74L83.44 1.74L83.44 1.74Q82.71 1.87 82.68 2.17L82.68 2.17L82.68 2.17Q82.21 6.19 81.03 11.16L81.03 11.16L81.03 11.16Q80.97 11.42 81.61 11.30L81.61 11.30L81.61 11.30Q81.92 11.25 82.17 11.12L82.17 11.12L82.17 11.12Q82.37 11.03 82.43 10.97L82.43 10.97L82.43 10.97Q82.69 10.93 83.08 10.77L83.08 10.77L83.08 10.77Q84.64 10.12 85.63 7.78L85.63 7.78L85.63 7.78Q86.54 5.63 86.50 3.48L86.50 3.48ZM97.73 1.42L97.73 1.42Q97.02 1.19 95.84 1.57L95.84 1.57L95.84 1.57Q94.33 2.06 93.77 3.77L93.77 3.77L93.77 3.77Q93.42 4.83 93.60 6.11L93.60 6.11L93.60 6.11Q93.69 6.76 93.95 7.16L93.95 7.16L93.95 7.16Q93.54 7.38 93.24 7.70L93.24 7.70L93.24 7.70Q92.24 8.80 92.35 10.01L92.35 10.01L92.35 10.01Q92.42 10.70 92.90 11.11L92.90 11.11L92.90 11.11Q93.30 11.44 94.12 11.42L94.12 11.42L94.12 11.42Q94.96 11.39 95.66 10.95L95.66 10.95L95.66 10.95Q96.41 10.49 96.71 9.76L96.71 9.76L96.71 9.76Q96.78 9.61 96.50 9.60L96.50 9.60L96.50 9.60Q96.33 9.59 96.13 9.63L96.13 9.63L96.13 9.63Q95.38 9.76 95.28 10.02L95.28 10.02L95.28 10.02Q95.08 10.51 94.73 10.80L94.73 10.80L94.73 10.80Q94.72 10.81 94.71 10.82L94.71 10.82L94.71 10.82Q94.66 10.81 94.65 10.81L94.65 10.81L94.65 10.81Q94.58 10.79 94.50 10.75L94.50 10.75L94.50 10.75Q94.34 10.68 94.18 10.52L94.18 10.52L94.18 10.52Q93.89 10.23 93.82 9.63L93.82 9.63L93.82 9.63Q93.72 8.83 94.35 7.86L94.35 7.86L94.35 7.86Q94.43 7.74 94.53 7.62L94.53 7.62L94.53 7.62Q94.75 7.70 95.02 7.72L95.02 7.72L95.02 7.72Q95.42 7.74 95.92 7.51L95.92 7.51L95.92 7.51Q96.33 7.32 96.18 7.18L96.18 7.18L96.18 7.18Q95.89 6.90 95.47 6.84L95.47 6.84L95.47 6.84Q95.43 6.79 95.40 6.75L95.40 6.75L95.40 6.75Q95.19 6.45 95.08 5.89L95.08 5.89L95.08 5.89Q94.89 4.89 95.07 4.00L95.07 4.00L95.07 4.00Q95.34 2.70 96.11 2.04L96.11 2.04L96.11 2.04Q96.16 2.00 96.26 1.93L96.26 1.93L96.26 1.93Q96.26 1.93 96.26 1.93L96.26 1.93L96.26 1.93Q96.39 1.94 96.37 1.93L96.37 1.93L96.37 1.93Q96.95 2.02 96.84 2.62L96.84 2.62L96.84 2.62Q96.79 2.86 97.42 2.75L97.42 2.75L97.42 2.75Q97.73 2.69 97.98 2.58L97.98 2.58L97.98 2.58Q98.26 2.45 98.28 2.36L98.28 2.36L98.28 2.36Q98.42 1.63 97.73 1.42L97.73 1.42ZM119.30 1.31L119.30 1.31Q118.99 1.36 118.74 1.48L118.74 1.48L118.74 1.48Q118.46 1.61 118.44 1.70L118.44 1.70L118.44 1.70Q118.24 2.55 117.79 4.25L117.79 4.25L117.79 4.25Q117.34 5.94 117.14 6.80L117.14 6.80L117.14 6.80Q116.49 6.88 115.81 7.03L115.81 7.03L115.81 7.03Q116.02 6.04 116.43 4.31L116.43 4.31L116.43 4.31Q116.89 2.37 117.06 1.59L117.06 1.59L117.06 1.59Q117.11 1.34 116.48 1.46L116.48 1.46L116.48 1.46Q116.18 1.51 115.92 1.63L115.92 1.63L115.92 1.63Q115.64 1.76 115.62 1.85L115.62 1.85L115.62 1.85Q115.45 2.61 114.97 4.64L114.97 4.64L114.97 4.64Q114.56 6.41 114.34 7.44L114.34 7.44L114.34 7.44Q114.21 7.49 114.17 7.50L114.17 7.50L114.17 7.50Q114.02 7.55 113.85 7.66L113.85 7.66L113.85 7.66Q113.60 7.82 113.74 7.91L113.74 7.91L113.74 7.91Q113.91 8.01 114.24 7.94L114.24 7.94L114.24 7.94Q113.92 9.65 113.80 11.08L113.80 11.08L113.80 11.08Q113.79 11.15 114.02 11.16L114.02 11.16L114.02 11.16Q114.23 11.17 114.51 11.12L114.51 11.12L114.51 11.12Q115.23 10.98 115.25 10.69L115.25 10.69L115.25 10.69Q115.38 9.26 115.71 7.53L115.71 7.53L115.71 7.53Q115.92 7.49 116.27 7.42L116.27 7.42L116.27 7.42Q116.64 7.36 117.02 7.33L117.02 7.33L117.02 7.33Q116.55 9.44 116.46 11.13L116.46 11.13L116.46 11.13Q116.46 11.20 116.69 11.21L116.69 11.21L116.69 11.21Q116.90 11.22 117.18 11.17L117.18 11.17L117.18 11.17Q117.91 11.03 117.93 10.74L117.93 10.74L117.93 10.74Q118.01 9.17 118.42 7.25L118.42 7.25L118.42 7.25Q118.75 7.18 119.01 7.02L119.01 7.02L119.01 7.02Q119.19 6.91 119.16 6.82L119.16 6.82L119.16 6.82Q119.14 6.72 118.93 6.71L118.93 6.71L118.93 6.71Q118.76 6.71 118.54 6.71L118.54 6.71L118.54 6.71Q118.75 5.79 119.21 4.07L119.21 4.07L119.21 4.07Q119.68 2.28 119.88 1.44L119.88 1.44L119.88 1.44Q119.94 1.19 119.30 1.31L119.30 1.31ZM130.92 2.21L130.92 2.21Q130.28 2.38 130.25 2.63L130.25 2.63L130.25 2.63Q130.19 3.01 130.03 4.51L130.03 4.51L130.03 4.51Q129.91 5.69 129.77 6.41L129.77 6.41L129.77 6.41Q129.37 8.57 128.27 9.83L128.27 9.83L128.27 9.83Q128.12 10.00 128.01 10.12L128.01 10.12L128.01 10.12Q127.75 9.61 127.71 8.40L127.71 8.40L127.71 8.40Q127.65 6.90 128.58 4.58L128.58 4.58L128.58 4.58Q129.26 2.88 129.42 2.40L129.42 2.40L129.42 2.40Q129.51 2.15 128.84 2.26L128.84 2.26L128.84 2.26Q128.07 2.41 127.98 2.66L127.98 2.66L127.98 2.66Q127.82 3.12 127.26 4.53L127.26 4.53L127.26 4.53Q126.80 5.71 126.59 6.43L126.59 6.43L126.59 6.43Q125.92 8.66 126.49 10.36L126.49 10.36L126.49 10.36Q126.59 10.68 126.79 10.83L126.79 10.83L126.79 10.83Q127.03 11.03 127.67 10.92L127.67 10.92L127.67 10.92Q128.68 10.73 129.59 9.71L129.59 9.71L129.59 9.71Q130.76 8.41 131.19 6.34L131.19 6.34L131.19 6.34Q131.35 5.55 131.48 4.29L131.48 4.29L131.48 4.29Q131.66 2.58 131.71 2.24L131.71 2.24L131.71 2.24Q131.72 2.11 131.34 2.14L131.34 2.14L131.34 2.14Q131.09 2.16 130.92 2.21L130.92 2.21ZM144.18 0.74L144.18 0.74Q143.87 0.79 143.62 0.91L143.62 0.91L143.62 0.91Q143.34 1.04 143.32 1.13L143.32 1.13L143.32 1.13Q142.43 3.96 141.81 7.39L141.81 7.39L141.81 7.39Q141.73 6.88 141.61 6.21L141.61 6.21L141.61 6.21Q141.32 4.44 141.27 4.05L141.27 4.05L141.27 4.05Q141.12 2.77 140.93 2.37L140.93 2.37L140.93 2.37Q140.93 2.37 140.92 2.35L140.92 2.35L140.92 2.34L140.92 2.34Q140.92 2.34 140.92 2.33L140.92 2.33L140.92 2.33Q140.96 2.08 140.33 2.20L140.33 2.20L140.33 2.20Q140.03 2.26 139.78 2.37L139.78 2.37L139.78 2.37Q139.49 2.51 139.48 2.60L139.48 2.60L139.48 2.60Q139.30 3.71 138.65 6.73L138.65 6.73L138.65 6.73Q138.11 9.34 137.90 10.89L137.90 10.89L137.90 10.89Q137.89 11.01 138.27 10.98L138.27 10.98L138.27 10.98Q138.52 10.96 138.69 10.91L138.69 10.91L138.69 10.91Q139.34 10.74 139.36 10.50L139.36 10.50L139.36 10.50Q139.56 8.97 140.12 6.38L140.12 6.38L140.12 6.38Q140.14 6.54 140.15 6.61L140.15 6.61L140.15 6.61Q140.37 7.90 140.55 8.95L140.55 8.95L140.55 8.95Q140.81 10.45 141.03 11.09L141.03 11.09L141.03 11.09Q141.09 11.24 141.43 11.21L141.43 11.21L141.43 11.21Q141.74 11.18 142.08 11.05L142.08 11.05L142.08 11.05Q142.67 10.89 142.70 10.65L142.70 10.65L142.70 10.65Q143.47 5.00 144.76 0.87L144.76 0.87L144.76 0.87Q144.84 0.62 144.18 0.74L144.18 0.74ZM155.54 2.35L155.54 2.35Q154.59 2.17 153.58 2.15L153.58 2.15L153.58 2.15Q153.49 2.03 153.01 2.11L153.01 2.11L153.01 2.11Q152.91 2.13 152.80 2.16L152.80 2.16L152.80 2.16Q151.73 2.22 150.69 2.46L150.69 2.46L150.69 2.46Q149.95 2.63 150.02 2.88L150.02 2.88L150.02 2.88Q150.07 3.08 150.79 2.91L150.79 2.91L150.79 2.91Q150.80 2.91 150.81 2.90L150.81 2.90L150.81 2.90Q150.83 2.90 150.84 2.89L150.84 2.89L150.84 2.89Q150.92 2.88 151.07 2.85L151.07 2.85L151.07 2.85Q151.24 2.82 151.46 2.80L151.46 2.80L151.46 2.80Q151.75 2.76 152.08 2.75L152.08 2.75L152.08 2.75Q150.66 7.40 150.27 10.96L150.27 10.96L150.27 10.96Q150.26 11.02 150.49 11.03L150.49 11.03L150.49 11.03Q150.70 11.04 150.98 10.99L150.98 10.99L150.98 10.99Q151.70 10.86 151.73 10.56L151.73 10.56L151.73 10.56Q152.11 7.19 153.43 2.78L153.43 2.78L153.43 2.78Q153.90 2.82 154.33 2.91L154.33 2.91L154.33 2.91Q154.77 2.99 155.36 2.72L155.36 2.72L155.36 2.72Q155.52 2.65 155.61 2.54L155.61 2.54L155.61 2.54Q155.76 2.39 155.54 2.35L155.54 2.35ZM165.96 1.42L165.96 1.42Q165.25 1.19 164.07 1.57L164.07 1.57L164.07 1.57Q162.56 2.06 162.00 3.77L162.00 3.77L162.00 3.77Q161.65 4.83 161.83 6.11L161.83 6.11L161.83 6.11Q161.92 6.76 162.18 7.16L162.18 7.16L162.18 7.16Q161.77 7.38 161.47 7.70L161.47 7.70L161.47 7.70Q160.47 8.80 160.58 10.01L160.58 10.01L160.58 10.01Q160.65 10.70 161.13 11.11L161.13 11.11L161.13 11.11Q161.53 11.44 162.35 11.42L162.35 11.42L162.35 11.42Q163.19 11.39 163.89 10.95L163.89 10.95L163.89 10.95Q164.64 10.49 164.94 9.76L164.94 9.76L164.94 9.76Q165.01 9.61 164.73 9.60L164.73 9.60L164.73 9.60Q164.55 9.59 164.36 9.63L164.36 9.63L164.36 9.63Q163.61 9.76 163.51 10.02L163.51 10.02L163.51 10.02Q163.31 10.51 162.96 10.80L162.96 10.80L162.96 10.80Q162.95 10.81 162.93 10.82L162.93 10.82L162.93 10.82Q162.89 10.81 162.88 10.81L162.88 10.81L162.88 10.81Q162.81 10.79 162.73 10.75L162.73 10.75L162.73 10.75Q162.57 10.68 162.41 10.52L162.41 10.52L162.41 10.52Q162.12 10.23 162.05 9.63L162.05 9.63L162.05 9.63Q161.95 8.83 162.58 7.86L162.58 7.86L162.58 7.86Q162.66 7.74 162.76 7.62L162.76 7.62L162.76 7.62Q162.98 7.70 163.25 7.72L163.25 7.72L163.25 7.72Q163.65 7.74 164.14 7.51L164.14 7.51L164.14 7.51Q164.56 7.32 164.41 7.18L164.41 7.18L164.41 7.18Q164.12 6.90 163.70 6.84L163.70 6.84L163.70 6.84Q163.66 6.79 163.63 6.75L163.63 6.75L163.63 6.75Q163.42 6.45 163.31 5.89L163.31 5.89L163.31 5.89Q163.12 4.89 163.30 4.00L163.30 4.00L163.30 4.00Q163.57 2.70 164.34 2.04L164.34 2.04L164.34 2.04Q164.39 2.00 164.49 1.93L164.49 1.93L164.49 1.93Q164.49 1.93 164.49 1.93L164.49 1.93L164.49 1.93Q164.62 1.94 164.60 1.93L164.60 1.93L164.60 1.93Q165.18 2.02 165.07 2.62L165.07 2.62L165.07 2.62Q165.02 2.86 165.65 2.75L165.65 2.75L165.65 2.75Q165.96 2.69 166.21 2.58L166.21 2.58L166.21 2.58Q166.49 2.45 166.51 2.36L166.51 2.36L166.51 2.36Q166.65 1.63 165.96 1.42L165.96 1.42ZM176.22 5.31L176.22 5.31Q176.07 6.24 175.17 7.18L175.17 7.18L175.17 7.18Q174.98 7.38 174.74 7.58L174.74 7.58L174.74 7.58Q174.68 7.63 174.62 7.68L174.62 7.68L174.62 7.68Q174.40 7.59 174.15 7.58L174.15 7.58L174.15 7.58Q174.71 4.74 174.85 2.66L174.85 2.66L174.85 2.66Q175.12 2.80 175.36 2.99L175.36 2.99L175.36 2.99Q175.87 3.39 176.10 4.03L176.10 4.03L176.10 4.03Q176.33 4.65 176.22 5.31L176.22 5.31ZM173.24 2.40L173.24 2.40Q173.24 2.40 173.26 2.39L173.26 2.39L173.26 2.39Q173.25 2.40 173.24 2.40L173.24 2.40ZM178.18 11.42L178.18 11.42Q177.45 10.88 175.92 8.99L175.92 8.99L175.92 8.99Q175.25 8.17 175.13 8.05L175.13 8.05L175.13 8.05Q175.59 7.84 176.02 7.50L176.02 7.50L176.02 7.50Q177.22 6.56 177.58 5.41L177.58 5.41L177.58 5.41Q177.82 4.60 177.62 3.84L177.62 3.84L177.62 3.84Q177.41 3.07 176.78 2.53L176.78 2.53L176.78 2.53Q175.54 1.46 173.47 1.88L173.47 1.88L173.47 1.88Q173.34 1.91 173.14 1.96L173.14 1.96L173.14 1.96Q172.40 2.14 172.46 2.37L172.46 2.37L172.46 2.37Q172.53 2.58 173.24 2.40L173.24 2.40L173.24 2.40Q173.30 2.39 173.35 2.38L173.35 2.38L173.35 2.38Q173.39 2.37 173.43 2.37L173.43 2.37L173.43 2.37Q173.31 5.11 172.07 10.79L172.07 10.79L172.07 10.79Q172.02 11.04 172.66 10.92L172.66 10.92L172.66 10.92Q172.96 10.87 173.22 10.75L173.22 10.75L173.22 10.75Q173.50 10.62 173.52 10.53L173.52 10.53L173.52 10.53Q173.81 9.17 173.91 8.72L173.91 8.72L173.91 8.72Q173.91 8.72 173.91 8.72L173.91 8.72L173.91 8.72Q173.92 8.72 173.92 8.72L173.92 8.72L173.92 8.72Q174.03 8.85 174.71 9.70L174.71 9.70L174.71 9.70Q176.03 11.34 176.80 11.92L176.80 11.92L176.80 11.92Q177.02 12.09 177.74 11.83L177.74 11.83L177.74 11.83Q177.93 11.76 178.07 11.67L178.07 11.67L178.07 11.67Q178.32 11.52 178.18 11.42L178.18 11.42ZM189.69 5.50L189.69 5.50Q190.14 4.74 190.35 3.53L190.35 3.53L190.35 3.53Q190.59 2.15 190.09 1.57L190.09 1.57L190.09 1.57Q189.80 1.22 189.05 1.27L189.05 1.27L189.05 1.27Q188.11 1.33 187.22 1.85L187.22 1.85L187.22 1.85Q185.96 2.59 185.36 4.34L185.36 4.34L185.36 4.34Q184.74 6.10 185.36 7.18L185.36 7.18L185.36 7.18Q185.65 7.68 187.02 8.17L187.02 8.17L187.02 8.17Q187.59 8.37 187.80 8.48L187.80 8.48L187.80 8.48Q188.23 8.74 188.32 9.11L188.32 9.11L188.32 9.11Q188.42 9.50 188.08 10.17L188.08 10.17L188.08 10.17Q187.90 10.51 187.62 10.76L187.62 10.76L187.62 10.76Q187.50 10.87 187.35 10.97L187.35 10.97L187.35 10.97Q187.27 11.02 187.25 11.03L187.25 11.03L187.25 11.03Q187.19 11.07 187.13 11.09L187.13 11.09L187.13 11.09Q187.22 11.05 187.10 11.10L187.10 11.10L187.10 11.10Q187.11 11.10 187.17 11.09L187.17 11.09L187.17 11.09Q187.13 11.09 187.08 11.09L187.08 11.09L187.08 11.09Q187.07 11.10 186.98 11.09L186.98 11.09L186.98 11.09Q186.93 11.09 186.78 11.05L186.78 11.05L186.78 11.05Q186.42 10.97 186.12 10.64L186.12 10.64L186.12 10.64Q185.90 10.39 185.81 9.93L185.81 9.93L185.81 9.93Q185.71 9.44 185.94 9.28L185.94 9.28L185.94 9.28Q186.14 9.13 186.12 9.06L186.12 9.06L186.12 9.06Q186.09 8.97 185.86 8.96L185.86 8.96L185.86 8.96Q185.23 8.95 184.82 9.24L184.82 9.24L184.82 9.24Q184.43 9.53 184.36 9.86L184.36 9.86L184.36 9.86Q184.28 10.20 184.43 10.62L184.43 10.62L184.43 10.62Q184.71 11.36 185.58 11.61L185.58 11.61L185.58 11.61Q186.46 11.87 187.74 11.37L187.74 11.37L187.74 11.37Q188.75 10.96 189.31 10.24L189.31 10.24L189.31 10.24Q189.69 9.76 189.78 9.24L189.78 9.24L189.78 9.24Q189.88 8.62 189.50 8.23L189.50 8.23L189.50 8.23Q189.23 7.96 188.67 7.75L188.67 7.75L188.67 7.75Q188.52 7.70 188.21 7.59L188.21 7.59L188.21 7.59Q187.91 7.50 187.78 7.44L187.78 7.44L187.78 7.44Q187.25 7.23 186.97 6.97L186.97 6.97L186.97 6.97Q186.67 6.69 186.57 5.96L186.57 5.96L186.57 5.96Q186.37 4.53 187.32 2.97L187.32 2.97L187.32 2.97Q187.74 2.29 188.24 1.95L188.24 1.95L188.24 1.95Q188.29 1.91 188.38 1.86L188.38 1.86L188.38 1.86Q188.38 1.86 188.43 1.84L188.43 1.84L188.43 1.84Q188.42 1.84 188.46 1.83L188.46 1.83L188.46 1.83Q188.43 1.84 188.47 1.83L188.47 1.83L188.47 1.83Q188.40 1.85 188.32 1.85L188.32 1.85L188.32 1.85Q188.34 1.85 188.33 1.85L188.33 1.85L188.35 1.85L188.35 1.85Q188.41 1.86 188.49 1.89L188.49 1.89L188.49 1.89Q188.50 1.89 188.60 1.96L188.60 1.96L188.60 1.96Q188.67 2.01 188.71 2.06L188.71 2.06L188.71 2.06Q188.82 2.20 188.89 2.45L188.89 2.45L188.89 2.45Q189.01 2.84 188.95 3.49L188.95 3.49L188.95 3.49Q188.82 4.81 188.25 5.76L188.25 5.76L188.25 5.76Q188.16 5.90 188.47 5.91L188.47 5.91L188.47 5.91Q188.67 5.92 188.83 5.89L188.83 5.89L188.83 5.89Q189.53 5.76 189.69 5.50L189.69 5.50Z"></path></g></svg>